<svg width="500" height="500" viewBox="0 0 500 500" fill="none" xmlns="http://www.w3.org/2000/svg">
<ellipse cx="249.994" cy="250.204" rx="180.711" ry="180.682" fill="white"/>
<path d="M243.884 0.132546C196.987 1.20788 150.339 15.9875 111.321 42.0958C96.8639 51.7738 85.6836 60.9517 73.3027 73.3556C65.6741 80.958 61.0719 86.0846 54.8189 93.8871C3.89471 157.482 -12.8132 241.884 10.0226 320.058C19.6522 353.069 36.3101 384.253 58.2706 410.462C65.0988 418.589 75.979 429.868 83.1824 436.245C101.066 452.075 119.425 464.404 140.335 474.632C184.881 496.364 234.579 504.391 283.653 497.714C333.251 490.987 379.073 469.805 416.966 436.145C421.193 432.369 432.449 421.115 436.15 416.964C461.437 388.48 479.546 355.895 490.001 320.058C499.03 289.199 501.957 257.013 498.73 224.778C493.803 175.663 473.943 128.298 442.353 90.361C436.951 83.8339 433.449 80.0327 426.746 73.3556C417.291 63.9026 410.163 57.7007 400.083 50.1233C362.24 21.6893 317.069 4.63396 269.646 0.832766C264.444 0.43264 252.138 -0.0675173 248.761 0.00750628C247.586 0.0325142 245.41 0.0825299 243.884 0.132546ZM273.123 118.995C284.553 119.495 294.058 121.046 304.563 124.097C330.725 131.674 354.637 147.954 371.545 169.686C387.427 190.092 396.782 214.25 398.808 240.008C399.158 244.284 399.158 255.488 398.833 259.689C396.607 287.873 385.776 313.881 367.293 335.438C364.016 339.264 357.288 345.991 353.436 349.292C334.877 365.247 311.891 375.901 288.155 379.552C278.7 381.027 282.877 380.927 218.897 381.002C153.866 381.102 157.993 381.203 153.441 379.477C149.064 377.826 144.812 374.65 141.91 370.824C139.359 367.498 137.508 362.797 136.958 358.32C136.608 355.394 136.608 249.461 136.958 246.535C137.508 242.059 139.359 237.357 141.91 234.031C145.787 228.905 151.74 225.228 157.843 224.153C161.095 223.603 270.572 223.578 273.798 224.153C282.677 225.704 290.306 231.856 293.708 240.158C296.184 246.26 296.184 253.812 293.708 259.914C291.982 264.091 288.88 268.142 285.204 270.968C283.353 272.393 280.076 274.144 277.75 274.944C273.648 276.32 274.724 276.294 235.78 276.294C197.787 276.294 197.937 276.294 195.686 277.42C192.96 278.82 190.809 281.296 189.933 284.122C189.483 285.572 189.483 286.598 189.533 302.903L189.608 320.183L190.408 321.859C191.259 323.684 193.035 325.76 194.535 326.71C195.036 327.035 196.136 327.511 196.962 327.811C198.462 328.311 198.913 328.311 235.48 328.311C277.175 328.311 276.875 328.311 285.404 326.31C314.342 319.483 337.378 296.276 343.932 267.417C345.382 260.965 345.657 258.264 345.657 250.036C345.657 243.384 345.582 241.959 345.107 238.908C342.806 224.428 337.503 212.274 328.549 201.046C316.794 186.291 299.085 175.838 280.651 172.787C279.001 172.512 277.25 172.212 276.775 172.112C276.299 172.012 250.187 171.862 218.747 171.762C177.077 171.637 161.12 171.512 159.794 171.311C153.366 170.236 148.238 167.61 144.061 163.159C140.56 159.483 138.384 155.331 137.333 150.38C136.708 147.504 136.758 142.552 137.408 139.576C139.909 128.448 149.114 120.195 160.369 119.02C163.221 118.72 266.445 118.695 273.123 118.995Z" fill="#0080FF"/>
</svg>
