<svg width="4475" height="1000" viewBox="0 0 4475 1000" fill="none" xmlns="http://www.w3.org/2000/svg">
<circle cx="499.75" cy="500.25" r="361.25" fill="#0080FF"/>
<path d="M487.536 0.265073C393.786 2.41507 300.536 31.9651 222.536 84.1651C193.636 103.515 171.286 121.865 146.536 146.665C131.286 161.865 122.086 172.115 109.586 187.715C7.78572 314.865 -25.6143 483.615 20.0357 639.915C39.2857 705.915 72.5857 768.265 116.486 820.665C130.136 836.915 151.886 859.465 166.286 872.215C202.036 903.865 238.736 928.515 280.536 948.965C369.586 992.415 468.936 1008.47 567.036 995.115C666.186 981.665 757.786 939.315 833.536 872.015C841.986 864.465 864.486 841.965 871.886 833.665C922.436 776.715 958.636 711.565 979.536 639.915C997.586 578.215 1003.44 513.865 996.986 449.415C987.136 351.215 947.436 256.515 884.286 180.665C873.486 167.615 866.486 160.015 853.086 146.665C834.186 127.765 819.936 115.365 799.786 100.215C724.136 43.3651 633.836 9.26507 539.036 1.66507C528.636 0.865073 504.036 -0.134927 497.286 0.015073C494.936 0.065073 490.586 0.165073 487.536 0.265073ZM545.986 237.915C568.836 238.915 587.836 242.015 608.836 248.115C661.136 263.265 708.936 295.815 742.736 339.265C774.486 380.065 793.186 428.365 797.236 479.865C797.936 488.415 797.936 510.815 797.286 519.215C792.836 575.565 771.186 627.565 734.236 670.665C727.686 678.315 714.236 691.765 706.536 698.365C669.436 730.265 623.486 751.565 576.036 758.865C557.136 761.815 565.486 761.615 437.586 761.765C307.586 761.965 315.836 762.165 306.736 758.715C297.986 755.415 289.486 749.065 283.686 741.415C278.586 734.765 274.886 725.365 273.786 716.415C273.086 710.565 273.086 498.765 273.786 492.915C274.886 483.965 278.586 474.565 283.686 467.915C291.436 457.665 303.336 450.315 315.536 448.165C322.036 447.065 540.886 447.015 547.336 448.165C565.086 451.265 580.336 463.565 587.136 480.165C592.086 492.365 592.086 507.465 587.136 519.665C583.686 528.015 577.486 536.115 570.136 541.765C566.436 544.615 559.886 548.115 555.236 549.715C547.036 552.465 549.186 552.415 471.336 552.415C395.386 552.415 395.686 552.415 391.186 554.665C385.736 557.465 381.436 562.415 379.686 568.065C378.786 570.965 378.786 573.015 378.886 605.615L379.036 640.165L380.636 643.515C382.336 647.165 385.886 651.315 388.886 653.215C389.886 653.865 392.086 654.815 393.736 655.415C396.736 656.415 397.636 656.415 470.736 656.415C554.086 656.415 553.486 656.415 570.536 652.415C628.386 638.765 674.436 592.365 687.536 534.665C690.436 521.765 690.986 516.365 690.986 499.915C690.986 486.615 690.836 483.765 689.886 477.665C685.286 448.715 674.686 424.415 656.786 401.965C633.286 372.465 597.886 351.565 561.036 345.465C557.736 344.915 554.236 344.315 553.286 344.115C552.336 343.915 500.136 343.615 437.286 343.415C353.986 343.165 322.086 342.915 319.436 342.515C306.586 340.365 296.336 335.115 287.986 326.215C280.986 318.865 276.636 310.565 274.536 300.665C273.286 294.915 273.386 285.015 274.686 279.065C279.686 256.815 298.086 240.315 320.586 237.965C326.286 237.365 532.636 237.315 545.986 237.915Z" fill="white"/>
<path d="M1215.4 673.293V338.942C1215.4 331.602 1217.91 325.425 1222.92 320.412C1227.94 315.399 1233.93 312.893 1240.92 312.893H1391.04C1468.74 312.893 1525.23 328.469 1560.5 359.621C1595.95 390.594 1613.67 439.292 1613.67 505.715C1613.67 571.958 1595.95 620.567 1560.5 651.54C1525.23 682.513 1468.74 698 1391.04 698H1240.92C1233.93 698 1227.94 695.673 1222.92 691.018C1217.91 686.184 1215.4 680.275 1215.4 673.293ZM1316.65 621.999H1388.08C1436.24 621.999 1469.01 613.226 1486.38 595.681C1503.74 578.135 1512.42 548.146 1512.42 505.715C1512.42 463.104 1503.74 433.026 1486.38 415.48C1469.01 397.756 1436.24 388.894 1388.08 388.894H1316.65V621.999ZM1688.06 664.162C1660.49 638.023 1646.7 600.425 1646.7 551.369C1646.7 502.134 1660.58 464.357 1688.33 438.039C1716.08 411.542 1754.57 398.293 1803.81 398.293C1853.04 398.293 1891.44 411.184 1919.02 436.965C1946.59 462.567 1960.37 499.359 1960.37 547.341V562.648C1960.37 567.482 1958.76 571.511 1955.54 574.733C1952.5 577.777 1948.56 579.299 1943.72 579.299H1741.5C1743.29 601.32 1749.56 617.344 1760.3 627.37C1771.22 637.396 1788.59 642.409 1812.4 642.409C1836.21 642.409 1852.5 637.038 1861.28 626.296C1870.05 615.554 1880.88 610.093 1893.77 609.914H1933.79C1938.62 609.914 1942.56 611.525 1945.6 614.748C1948.83 617.792 1950.44 621.73 1950.44 626.564C1950.44 677.948 1901.47 703.55 1803.54 703.371C1754.12 703.371 1715.63 690.301 1688.06 664.162ZM1740.96 522.634H1865.84C1864.05 480.381 1843.28 459.255 1803.54 459.255C1763.97 459.255 1743.11 480.381 1740.96 522.634ZM1990.72 403.664H2042.28C2049.98 403.664 2057.23 405.902 2064.04 410.378C2070.84 414.675 2075.67 420.314 2078.54 427.297L2151.85 594.606L2224.9 427.297C2227.76 420.314 2232.6 414.675 2239.4 410.378C2246.21 405.902 2253.46 403.664 2261.16 403.664H2312.99C2319.25 403.664 2323.37 405.992 2325.34 410.646C2326.24 412.437 2326.59 414.764 2326.41 417.629C2326.41 420.314 2325.61 423.537 2324 427.297L2207.98 674.367C2204.76 681.35 2199.66 687.079 2192.67 691.555C2185.87 695.852 2178.8 698 2171.46 698H2131.98C2124.64 698 2117.57 695.852 2110.76 691.555C2103.96 687.079 2098.95 681.35 2095.73 674.367L1979.71 427.297C1977.92 423.358 1977.02 420.046 1977.02 417.36C1977.02 408.229 1981.59 403.664 1990.72 403.664ZM2533.2 700.148C2473.76 700.148 2428.11 684.125 2396.24 652.077C2364.55 620.03 2348.7 571.063 2348.7 505.178C2348.7 439.113 2365.26 390.236 2398.39 358.547C2431.69 326.678 2481.55 310.744 2547.97 310.744H2607.86C2647.43 310.744 2683.05 320.233 2714.74 339.211C2746.61 358.01 2762.55 381.553 2762.55 409.841C2762.55 420.404 2759.41 428.013 2753.15 432.668C2746.88 437.144 2740.79 439.382 2734.89 439.382H2702.93C2687.53 439.382 2675.27 430.609 2666.14 413.063C2657 395.518 2634.45 386.745 2598.46 386.745H2550.66C2511.45 386.745 2484.86 395.16 2470.9 411.989C2456.93 428.819 2449.95 459.792 2449.95 504.909C2449.95 550.026 2456.22 581.268 2468.75 598.635C2481.28 615.822 2503.66 624.416 2535.89 624.416H2590.94C2619.77 624.416 2640.35 618.955 2652.71 608.034C2665.06 596.934 2671.42 581.089 2671.78 560.5H2611.08C2604.1 560.5 2598.1 558.083 2593.09 553.249C2588.25 548.236 2585.84 542.238 2585.84 535.256V514.309C2585.84 507.326 2588.25 501.418 2593.09 496.584C2598.1 491.571 2604.1 489.064 2611.08 489.064H2745.9C2752.88 489.064 2758.79 491.571 2763.62 496.584C2768.63 501.418 2771.14 507.326 2771.14 514.309V544.118C2771.14 594.248 2756.1 632.831 2726.02 659.865C2695.95 686.721 2651.81 700.148 2593.63 700.148H2533.2ZM2845.53 664.162C2817.96 638.023 2804.17 600.425 2804.17 551.369C2804.17 502.134 2818.05 464.357 2845.8 438.039C2873.55 411.542 2912.04 398.293 2961.28 398.293C3010.51 398.293 3048.92 411.184 3076.49 436.965C3104.06 462.567 3117.84 499.359 3117.84 547.341V562.648C3117.84 567.482 3116.23 571.511 3113.01 574.733C3109.97 577.777 3106.03 579.299 3101.19 579.299H2898.97C2900.76 601.32 2907.03 617.344 2917.77 627.37C2928.69 637.396 2946.06 642.409 2969.87 642.409C2993.68 642.409 3009.98 637.038 3018.75 626.296C3027.52 615.554 3038.35 610.093 3051.24 609.914H3091.26C3096.09 609.914 3100.03 611.525 3103.07 614.748C3106.3 617.792 3107.91 621.73 3107.91 626.564C3107.91 677.948 3058.94 703.55 2961.01 703.371C2911.59 703.371 2873.1 690.301 2845.53 664.162ZM2898.44 522.634H3023.31C3021.52 480.381 3000.75 459.255 2961.01 459.255C2921.44 459.255 2900.58 480.381 2898.44 522.634ZM3167.26 681.618V420.314C3167.26 415.48 3168.78 411.542 3171.82 408.498C3175.05 405.275 3178.99 403.664 3183.64 403.664H3243.8C3248.45 403.664 3252.3 405.275 3255.34 408.498C3258.57 411.542 3260.18 415.48 3260.18 420.314V437.233C3290.97 411.273 3323.74 398.293 3358.47 398.293C3393.38 398.293 3421.76 408.946 3443.6 430.251C3465.44 451.377 3476.37 483.783 3476.37 527.468V681.618C3476.37 686.273 3474.75 690.212 3471.53 693.435C3468.49 696.478 3464.55 698 3459.71 698H3399.83C3395.17 698 3391.23 696.478 3388.01 693.435C3384.97 690.212 3383.45 686.273 3383.45 681.618V527.468C3383.45 484.678 3366.35 463.283 3332.15 463.283C3309.77 463.283 3285.78 476.084 3260.18 501.687V681.618C3260.18 686.273 3258.57 690.212 3255.34 693.435C3252.3 696.478 3248.45 698 3243.8 698H3183.64C3178.99 698 3175.05 696.478 3171.82 693.435C3168.78 690.212 3167.26 686.273 3167.26 681.618ZM3542.7 347.536V338.405C3542.7 328.916 3545.38 321.397 3550.75 315.847C3556.31 310.297 3563.91 307.521 3573.58 307.521H3606.88C3616.37 307.521 3623.89 310.297 3629.44 315.847C3634.99 321.218 3637.77 328.737 3637.77 338.405V347.536C3637.77 357.025 3634.99 364.545 3629.44 370.095C3624.07 375.645 3616.55 378.42 3606.88 378.42H3573.58C3564.09 378.42 3556.57 375.645 3551.02 370.095C3545.47 364.545 3542.7 357.025 3542.7 347.536ZM3543.77 681.618V426.76C3543.77 421.926 3545.29 417.987 3548.34 414.943C3551.56 411.9 3555.5 410.378 3560.15 410.378H3620.31C3625.14 410.378 3629.08 411.989 3632.13 415.212C3635.17 418.256 3636.69 422.105 3636.69 426.76V681.618C3636.69 686.452 3635.08 690.391 3631.86 693.435C3628.81 696.478 3624.97 698 3620.31 698H3560.15C3555.32 698 3551.38 696.478 3548.34 693.435C3545.29 690.391 3543.77 686.452 3543.77 681.618ZM3703.83 574.196V420.314C3703.83 415.48 3705.35 411.542 3708.4 408.498C3711.62 405.275 3715.56 403.664 3720.21 403.664H3780.37C3785.02 403.664 3788.87 405.275 3791.92 408.498C3795.14 411.542 3796.75 415.48 3796.75 420.314V574.196C3796.75 617.165 3813.76 638.649 3847.78 638.649C3870.16 638.649 3894.24 625.759 3920.02 599.978V420.314C3920.02 415.48 3921.54 411.542 3924.58 408.498C3927.81 405.275 3931.74 403.664 3936.4 403.664H3996.29C4001.12 403.664 4005.06 405.275 4008.1 408.498C4011.33 411.542 4012.94 415.48 4012.94 420.314V681.618C4012.94 686.273 4011.33 690.212 4008.1 693.435C4005.06 696.478 4001.12 698 3996.29 698H3936.4C3931.74 698 3927.81 696.478 3924.58 693.435C3921.54 690.212 3920.02 686.273 3920.02 681.618V664.431C3889.22 690.391 3856.37 703.371 3821.46 703.371C3786.72 703.371 3758.44 692.808 3736.59 671.682C3714.75 650.376 3703.83 617.881 3703.83 574.196ZM4062.62 485.036C4062.62 427.207 4109.26 398.293 4202.54 398.293C4300.65 398.293 4349.71 423.985 4349.71 475.368C4349.71 480.023 4348.18 483.962 4345.14 487.185C4342.1 490.228 4338.16 491.75 4333.32 491.75H4293.31C4280.42 491.75 4269.59 486.379 4260.81 475.637C4252.04 464.715 4234.76 459.255 4208.98 459.255C4173.53 459.255 4155.81 467.849 4155.81 485.036C4155.81 493.093 4162.7 499.807 4176.49 505.178C4190.45 510.549 4207.37 515.293 4227.24 519.411C4247.3 523.35 4267.26 528.452 4287.13 534.719C4307 540.985 4323.83 551.011 4337.62 564.797C4351.58 578.404 4358.57 595.681 4358.57 616.628C4358.57 674.457 4309.33 703.371 4210.86 703.371C4112.39 703.371 4063.16 677.769 4063.16 626.564C4063.16 621.73 4064.68 617.792 4067.72 614.748C4070.95 611.525 4074.97 609.914 4079.81 609.914H4119.82C4132.71 609.914 4143.54 615.375 4152.32 626.296C4161.09 637.038 4178.37 642.409 4204.15 642.409C4245.15 642.409 4265.65 633.815 4265.65 616.628C4265.65 608.571 4258.67 601.857 4244.7 596.486C4230.91 591.115 4214 586.371 4193.94 582.253C4173.89 577.956 4153.93 572.764 4134.06 566.677C4114.36 560.41 4097.53 550.384 4083.57 536.599C4069.6 522.813 4062.62 505.625 4062.62 485.036Z" fill="white"/>
</svg>
